<?xml version="1.0" encoding="UTF-8"?>
<svg width="24px" height="22px" viewBox="0 0 24 22" version="1.1" xmlns="http://www.w3.org/2000/svg" xmlns:xlink="http://www.w3.org/1999/xlink">
    <title>heart</title>
    <defs>
        <polygon id="path-1" points="0 0 1440 0 1440 768 0 768"></polygon>
    </defs>
    <g id="Login" stroke="none" stroke-width="1" fill="none" fill-rule="evenodd">
        <g id="Main-Page" transform="translate(-301.000000, -828.000000)">
            <g id="7" opacity="0.9" transform="translate(0.000000, 146.000000)">
                <mask id="mask-2" fill="white">
                    <use xlink:href="#path-1"></use>
                </mask>
                <g id="Mask"></g>
            </g>
            <path d="M319.716599,837.065128 C319.925902,837.276667 320.043111,837.567179 320.043111,837.863333 C320.043111,838.159487 319.925902,838.452821 319.716599,838.661538 C319.510087,838.873077 319.222645,838.991538 318.926831,838.991538 C318.633807,838.991538 318.346365,838.873077 318.140132,838.661538 C317.930829,838.452821 317.81055,838.162308 317.81055,837.863333 C317.81055,837.567179 317.930829,837.276667 318.140132,837.065128 C318.346365,836.85641 318.633807,836.735128 318.926831,836.735128 C319.222645,836.735128 319.510087,836.85641 319.716599,837.065128 M321.064229,835.426128 C321.09995,835.970205 320.692508,836.440385 320.154181,836.476205 C320.132414,836.477615 320.110646,836.478462 320.088879,836.478462 C319.578739,836.478462 319.14925,836.078231 319.115203,835.556154 C319.010552,833.956359 317.976039,833.693769 317.769527,833.657385 C317.235107,833.583487 316.869525,833.086795 316.942642,832.546667 C317.016037,832.006256 317.516689,831.63141 318.051109,831.703897 C319.017808,831.837872 320.892043,832.788103 321.064229,835.426128 M324.37149,832.227103 C323.233163,829.659308 320.827857,828 318.243946,828 C315.66171,828 313.98673,829.147949 312.999938,830.391513 C312.013146,829.147949 310.338167,828 307.756209,828 C305.172299,828 302.766993,829.659308 301.628386,832.227103 C300.442896,834.900949 300.954432,837.879128 302.996667,840.194487 C307.888489,845.740744 312.211565,849.672821 312.254542,849.711744 C312.466635,849.904103 312.733426,850 312.999938,850 C313.266729,850 313.533241,849.904103 313.745335,849.711744 C313.788311,849.672821 318.111388,845.740744 323.003209,840.194487 C325.045445,837.879128 325.557259,834.900949 324.37149,832.227103" id="heart" fill="#FA5F7D"></path>
            <path d="M66,808 L347,808 C347.552285,808 348,808.447715 348,809 L348,1268 C348,1268.55228 347.552285,1269 347,1269 L66,1269 C65.4477153,1269 65,1268.55228 65,1268 L65,809 C65,808.447715 65.4477153,808 66,808 Z" id="Mask" fill-opacity="0.2" fill="#FFFC43"></path>
        </g>
    </g>
</svg>